<svg width="48" height="64" viewBox="0 0 48 64" fill="none" xmlns="http://www.w3.org/2000/svg">
<path d="M5.32142 6.79682L5.00499 6.59644C4.07214 6.62797 5.32142 6.79682 5.32142 6.79682Z" fill="#FDC168"/>
<path d="M17.1966 7.74273C17.0379 4.40795 19.7717 1.75191 20.7191 1.63866C20.7713 2.20379 20.6661 4.40813 21.6132 5.08595C21.8889 3.28553 22.8212 1.30041 26.5028 0C25.7144 2.09128 26.3974 3.84301 26.723 4.65497C29.2369 2.37319 30.9307 2.75007 30.9307 2.75007C30.9307 2.75007 29.1839 5.76432 29.8673 7.74217C24.8205 7.34645 17.2213 8.27838 17.1966 7.74292V7.74273ZM6.49748 12.8227C5.29316 11.8236 6.19076 10.8965 6.0956 9.76144C6.04392 9.15751 5.99616 8.58772 5.79709 8.27334C4.68885 6.52367 2.07479 5.99269 2.04867 5.98709L0.821777 5.74679L1.63392 4.79676C1.73915 4.67363 5.07431 1.49127 10.2358 3.15773C13.8464 4.32212 16.5192 8.27073 16.6186 8.43025L14.8083 9.28158C14.7871 9.24799 12.6739 5.53633 9.57647 4.53761C7.07268 3.72976 4.76479 4.49843 3.77652 5.00218C4.82729 5.42159 6.20102 6.1856 7.02884 7.49254C7.41933 8.10991 7.48538 8.88698 7.549 9.63961C7.63296 10.6359 7.71132 11.5764 8.44454 12.1856L6.49748 12.8227V12.8227ZM3.28135 27.4061C3.28135 27.4061 4.79837 25.5247 5.24782 21.8642C5.42432 20.4222 5.11069 17.5782 4.609 16.4842C4.70023 19.174 4.01645 21.8642 4.01645 21.8642C4.01645 21.8642 3.55543 26.8589 3.28135 27.4061Z" fill="white"/>
<path d="M11.2812 10.9226C11.2803 10.9187 10.7943 8.7948 9.44687 7.72257C7.54607 6.21059 5.2253 7.0149 5.20292 7.02199L4.86597 5.98092C4.97828 5.94454 7.63096 5.10869 10.0756 6.82721C12.535 8.55542 12.8302 10.1221 12.8557 10.295L11.2811 10.9226H11.2812ZM8.04627 26.0568C8.04627 26.0568 7.25035 24.9174 7.39346 23.6644C7.46473 23.0455 7.75167 22.4103 8.26344 22.1849C9.21496 21.767 9.63661 22.8453 9.63661 22.8453C9.63661 22.8453 8.29758 23.1758 8.04627 26.0568V26.0568Z" fill="white"/>
<path d="M16.7854 27.7937C16.8186 27.8556 16.8358 27.8905 16.8358 27.8905C16.8358 27.8905 14.353 29.7536 11.8089 27.8629C10.447 26.8498 10.5757 24.3443 10.9929 23.2818C12.078 23.5277 12.9982 23.9708 13.7672 24.4884C12.7952 23.6208 11.9444 22.9822 11.9466 22.9674L10.8418 22.6547L8.69432 21.9183C8.66689 22.0821 7.88366 25.7535 10.1445 28.2551C11.1464 29.3644 15.8443 31.8484 18.075 27.6009L16.7854 27.7935V27.7937Z" fill="white"/>
<path d="M16.553 28.0667C17.9506 30.194 21.4772 28.9782 21.4166 26.7293C21.4166 26.7293 19.0602 28.0297 16.9782 25.6352C15.7627 24.2374 11.868 20.383 6.58618 21.6638C10.2337 22.4661 15.0627 25.7983 16.5528 28.0667H16.553Z" fill="white"/>
<path d="M6.09288 34.0704C6.42908 34.2646 7.61493 35.4928 7.61568 37.3294C7.61568 38.2505 7.52407 42.8775 7.06809 45.7043C7.75374 46.1498 8.23136 46.2446 8.91422 46.6987C9.25602 43.4249 9.50117 38.68 9.38699 36.7645C9.25639 34.5811 8.08714 33.1157 7.00297 32.4909C6.66341 32.2956 6.30874 32.1036 5.95146 31.9105C4.09451 30.9071 2.17412 29.869 2.17412 28.0968C2.17412 26.7101 2.71331 26.2766 3.28385 25.8168L3.34542 25.767C3.72416 25.4611 4.15253 25.114 4.40645 24.5444C5.0992 22.9869 5.21244 19.0191 4.40645 18.012C4.00458 17.5101 2.92806 15.8224 3.23758 14.6882C3.35549 14.2554 3.62808 13.9345 4.07193 13.7072C4.54153 13.4665 5.17606 13.3447 5.95705 13.3447C7.49105 13.3447 9.19258 13.8117 10.0704 14.0897C13.2072 15.0839 16.9924 17.9504 18.0773 18.8053C18.1085 18.8292 18.1268 18.8432 18.1301 18.8454L18.8244 19.3282L18.3902 18.6017C18.3633 18.5564 15.6135 14.0346 10.6964 12.3768C9.7398 12.0542 7.86046 11.5129 6.0134 11.5129C4.91393 11.5129 3.9807 11.7051 3.24206 12.0833C2.34148 12.5439 1.73176 13.2788 1.4784 14.208C0.857484 16.4855 2.87974 19.0212 2.94858 19.1023C3.18441 19.5232 3.28441 22.5806 2.73962 23.8041C2.66499 23.9731 2.45939 24.139 2.1995 24.3489C2.11796 24.4148 2.02692 24.4832 1.93046 24.5564C1.16197 25.1364 0 26.0127 0 28.0328C0 30.7966 2.80119 32.2952 5.05237 33.5001C5.42178 33.6988 5.77421 33.8868 6.09288 34.0704Z" fill="white"/>
<path d="M6.49748 12.8227C5.29316 11.8236 6.19076 10.8966 6.0956 9.76145C6.04392 9.15752 5.99616 8.58773 5.79709 8.27335C4.68885 6.52368 2.07479 5.9927 2.04867 5.9871L0.821777 5.7468L1.63392 4.79677C1.73915 4.67364 5.07431 1.49128 10.2358 3.15774C13.8464 4.32213 16.5192 8.27074 16.6186 8.43026L14.8083 9.28159C14.7871 9.24801 12.6739 5.53634 9.57647 4.53763C7.07268 3.72977 4.76479 4.49845 3.77652 5.00219C4.82729 5.4216 6.20102 6.18561 7.02884 7.49255C7.41933 8.10992 7.48538 8.88699 7.549 9.63962C7.63296 10.6359 7.71132 11.5764 8.44454 12.1856L6.49748 12.8227V12.8227Z" fill="#463014"/>
<path d="M6.45837 13.0274L6.38057 12.9629C5.48763 12.2218 5.64603 11.4919 5.79939 10.7856C5.86917 10.4596 5.94268 10.1227 5.91283 9.77698C5.86414 9.19581 5.81731 8.64747 5.6423 8.37079C4.58724 6.7047 2.03717 6.17111 2.01199 6.16588L0.479858 5.86531L1.49556 4.67778C1.51421 4.6554 3.65569 2.49377 7.28246 2.49377C8.27129 2.49377 9.28418 2.65833 10.2919 2.9839C14.0602 4.19885 16.7484 8.29299 16.7737 8.33347L16.8825 8.50736L14.741 9.51447L14.6552 9.37828C14.4246 8.98536 12.3942 5.63676 9.52169 4.71025C8.81626 4.48263 8.07296 4.36752 7.31324 4.36752C5.93709 4.36752 4.8212 4.74253 4.22734 4.9944C5.21972 5.44124 6.42329 6.19331 7.1845 7.39427C7.59869 8.04839 7.66586 8.84785 7.73153 9.62045C7.81213 10.5809 7.88825 11.4843 8.56215 12.0436L8.81645 12.2545L6.45855 13.0274H6.45837Z" fill="white"/>
<path d="M11.2812 10.9227C11.2803 10.9187 10.7943 8.7948 9.44687 7.72257C7.54607 6.21059 5.2253 7.0149 5.20292 7.02199L4.86597 5.98092C4.97828 5.94454 7.63096 5.10869 10.0756 6.82721C12.535 8.55543 12.8302 10.1221 12.8557 10.295L11.2811 10.9227H11.2812Z" fill="white"/>
<path d="M11.1505 11.171L11.1031 10.962C11.0983 10.9415 10.6216 8.89031 9.33293 7.86565C8.59839 7.28094 7.71274 6.98391 6.70189 6.98391C5.91288 6.98391 5.32648 7.17235 5.26249 7.19455L5.08842 7.25239L4.63635 5.86374L4.80968 5.80776C4.88729 5.78295 5.59141 5.56335 6.58733 5.56335C7.90117 5.56335 9.14337 5.949 10.1811 6.67775C12.7022 8.44925 13.0101 10.0875 13.0362 10.2683L13.0584 10.4112L11.1505 11.171ZM6.70208 6.61991C7.78195 6.61991 8.77116 6.95201 9.56036 7.57964C10.7046 8.49104 11.2429 10.0999 11.4056 10.6767L12.6459 10.1823C12.5336 9.74444 12.0392 8.43022 9.97119 6.97645C8.9818 6.2811 7.84371 5.92885 6.58752 5.92885C5.89814 5.92885 5.36268 6.03855 5.09812 6.10535L5.32182 6.79678C5.58115 6.72701 6.08042 6.61991 6.70208 6.61991ZM17.9333 56.4518C17.3945 56.4518 16.8447 56.2563 16.4637 55.9265C16.1719 55.675 15.1853 54.7688 14.7502 53.6587C14.5879 53.2435 14.6243 52.9114 14.8599 52.6724C15.0222 52.5086 15.3594 52.3129 16.0435 52.3129L16.5303 52.3122C17.1104 52.3114 18.0869 52.3114 18.9216 52.3114H19.722C20.2425 52.3114 20.6157 52.4241 20.83 52.6435C21.1056 52.9266 21.0174 53.2866 20.9401 53.4762C20.8062 53.8083 20.2511 54.8887 19.3115 55.8932C18.9751 56.2533 18.4856 56.4518 17.9333 56.4518ZM18.4981 28.1916L16.5529 28.0666C16.5529 28.0666 17.0501 28.9431 17.3723 30.0767C17.7361 31.359 17.0396 33.2331 17.0396 33.2331C17.0396 33.2331 19.6334 30.2965 18.4981 28.1916ZM16.0698 61.5882C9.14635 61.0561 7.20789 55.2237 7.20789 53.8611L9.23651 54.5673L7.42616 54.0794H8.51854C8.52768 54.6684 10.3675 59.3366 16.2083 59.7859L16.0698 61.5882Z" fill="white"/>
<path d="M14.0399 48.8881C14.0472 48.3183 14.1636 47.7662 14.4392 47.2164C14.4584 47.1785 14.4806 47.1421 14.5013 47.1052C12.7014 47.0897 10.6286 46.9175 8.86346 46.211C6.92329 45.4348 4.49637 42.7799 4.07938 39.6604C4.07938 39.6604 0.425556 42.4799 1.49909 48.5149C2.50695 54.1817 7.24905 56.0291 12.6572 56.3416C12.6602 56.3051 12.049 55.0427 12.2421 54.2698C9.17111 54.4929 5.73707 53.3065 4.07938 50.5788C2.56162 48.0821 2.98737 43.8197 3.61108 43.195C5.13258 47.9959 10.6073 48.9719 14.0399 48.8881V48.8881Z" fill="white"/>
<path d="M14.6065 45.4513C13.6334 48.3071 11.6456 50.6186 11.6456 50.6186C11.6456 50.6186 14.38 50.4941 14.531 50.0104C14.6427 49.6536 17.0001 44.1352 17.9049 37.6705C17.0538 39.0689 14.6899 45.2067 14.6065 45.4513V45.4513Z" fill="white"/>
<path d="M42.1488 6.79682L42.4658 6.59644C43.3988 6.62797 42.1488 6.79682 42.1488 6.79682Z" fill="#FDC168"/>
<path d="M40.9726 12.8227C42.1769 11.8236 41.28 10.8966 41.3752 9.76146C41.4259 9.15753 41.4737 8.58774 41.673 8.27336C42.7812 6.52369 45.3953 5.99271 45.4221 5.98711L46.6494 5.7468L45.8369 4.79678C45.7317 4.67364 42.3965 1.49128 37.2341 3.15774C33.6243 4.32214 30.9516 8.27075 30.8522 8.43027L32.6619 9.2816C32.6838 9.24802 34.797 5.53635 37.8945 4.53763C40.3983 3.72977 42.7058 4.49845 43.6937 5.00219C42.6435 5.42161 41.2692 6.18562 40.4414 7.49256C40.0509 8.10993 39.9854 8.887 39.922 9.63963C39.838 10.6359 39.7589 11.5764 39.0255 12.1856L40.9726 12.8227V12.8227ZM44.1881 27.4062C44.1881 27.4062 42.6719 25.5248 42.2224 21.8642C42.0459 20.4222 42.359 17.5783 42.8605 16.4842C42.7693 19.174 43.4538 21.8642 43.4538 21.8642C43.4538 21.8642 43.9148 26.8589 44.1881 27.4062Z" fill="white"/>
<path d="M36.1893 10.9226C36.1901 10.9187 36.6761 8.7948 38.0237 7.72257C39.9243 6.21059 42.2453 7.0149 42.2669 7.02199L42.6048 5.98092C42.4921 5.94454 39.8398 5.10869 37.3944 6.82721C34.935 8.55542 34.6406 10.1221 34.6143 10.295L36.1893 10.9226V10.9226ZM39.4241 26.0568C39.4241 26.0568 40.22 24.9174 40.0762 23.6644C40.0057 23.0455 39.7189 22.4103 39.2068 22.1849C38.2554 21.767 37.8336 22.8453 37.8336 22.8453C37.8336 22.8453 39.1728 23.1758 39.4241 26.0568Z" fill="white"/>
<path d="M30.6851 27.7936C30.6519 27.8556 30.6347 27.8905 30.6347 27.8905C30.6347 27.8905 33.1163 29.7536 35.6606 27.8629C37.0233 26.8498 36.8946 24.3443 36.4767 23.2818C35.3921 23.5277 34.4721 23.9708 33.7025 24.4883C34.6747 23.6208 35.5257 22.9822 35.5227 22.9674L36.6283 22.6547L38.7754 21.9187C38.803 22.0825 39.5861 25.7539 37.3244 28.2556C36.3225 29.3648 31.6247 31.8488 29.3948 27.6013L30.6851 27.7935V27.7936Z" fill="white"/>
<path d="M30.9168 28.0667C29.5192 30.194 25.9935 28.9782 26.0544 26.7293C26.0544 26.7293 28.41 28.0297 30.492 25.6352C31.7073 24.2374 35.6029 20.383 40.8844 21.6638C37.2371 22.4661 32.4079 25.7983 30.9168 28.0667V28.0667Z" fill="white"/>
<path d="M41.3784 34.0704C41.0418 34.2646 39.8554 35.4928 39.8554 37.3294C39.8546 38.2505 39.9464 42.8775 40.403 45.7043C39.7171 46.1498 39.2395 46.2446 38.5567 46.6987C38.2149 43.4249 37.9689 38.68 38.0841 36.7645C38.2145 34.5811 39.3832 33.1157 40.4672 32.4909C40.8067 32.2956 41.1616 32.1036 41.5196 31.9105C43.3766 30.9071 45.2969 29.869 45.2969 28.0968C45.2969 26.7101 44.7574 26.2766 44.1868 25.8168L44.126 25.767C43.7473 25.4611 43.318 25.114 43.0648 24.5444C42.3719 22.9869 42.2582 19.0191 43.064 18.012C43.4659 17.5101 44.5432 15.8224 44.2337 14.6882C44.115 14.2554 43.8422 13.9345 43.3986 13.7072C42.9288 13.4665 42.2954 13.3447 41.5134 13.3447C39.9804 13.3447 38.2779 13.8117 37.4008 14.0897C34.264 15.0839 30.479 17.9504 29.3932 18.8053C29.3622 18.8292 29.3443 18.8432 29.3409 18.8454L28.6461 19.3282L29.0803 18.6017C29.1079 18.5564 31.8572 14.0346 36.7741 12.3768C37.7309 12.0542 39.61 11.5129 41.4571 11.5129C42.5568 11.5129 43.4889 11.7051 44.2284 12.0833C45.1292 12.5439 45.7386 13.2788 45.9923 14.208C46.6132 16.4855 44.5908 19.0212 44.5217 19.1023C44.2861 19.5232 44.1863 22.5806 44.7301 23.8041C44.8051 23.9731 45.0106 24.139 45.2712 24.3489C45.3525 24.4148 45.4428 24.4832 45.54 24.5564C46.3087 25.1364 47.4701 26.0127 47.4701 28.0328C47.4701 30.7966 44.6689 32.2952 42.4185 33.5001C42.0489 33.6988 41.6959 33.8868 41.3782 34.0704H41.3784Z" fill="white"/>
<path d="M38.0365 12.4975C37.591 11.7428 36.4514 10.2857 33.8254 9.00527C30.8945 7.57687 27.5027 6.85186 23.7423 6.85018V6.84924H23.7278V6.84962C19.9668 6.85148 16.5742 7.57669 13.6443 9.00489C11.0181 10.2855 9.87927 11.7425 9.43337 12.4971L9.24194 12.7503L11.4909 13.2509L11.5622 13.1608L11.5998 13.0783C11.6345 12.9296 11.936 12.1272 14.4432 10.9046C17.1237 9.59726 20.2501 8.93437 23.7345 8.93325C27.2196 8.93437 30.3447 9.59726 33.0248 10.9046C35.5323 12.1272 35.8348 12.9296 35.8691 13.0781L35.9066 13.1608L35.9771 13.2509L38.2266 12.7503L38.0363 12.4975H38.0365Z" fill="white"/>
<path d="M40.9726 12.8227C42.1769 11.8236 41.28 10.8966 41.3752 9.76145C41.4259 9.15752 41.4737 8.58773 41.673 8.27335C42.7812 6.52368 45.3953 5.9927 45.4221 5.9871L46.6494 5.7468L45.8369 4.79677C45.7317 4.67364 42.3965 1.49128 37.2341 3.15774C33.6243 4.32213 30.9516 8.27074 30.8522 8.43026L32.6619 9.28159C32.6838 9.24801 34.797 5.53634 37.8945 4.53763C40.3983 3.72977 42.7058 4.49845 43.6937 5.00219C42.6435 5.4216 41.2692 6.18561 40.4414 7.49255C40.0509 8.10992 39.9854 8.88699 39.922 9.63962C39.838 10.6359 39.7589 11.5764 39.0255 12.1856L40.9726 12.8227V12.8227Z" fill="#463014"/>
<path d="M38.655 12.2553L38.9084 12.0443C39.5828 11.485 39.6584 10.5816 39.7399 9.62111C39.8052 8.84833 39.8726 8.04869 40.2866 7.39494C41.0474 6.19435 42.2518 5.44209 43.2438 4.99469C42.6499 4.74319 41.5338 4.36818 40.1575 4.36818C39.3974 4.36818 38.6556 4.48311 37.9498 4.71092C35.0766 5.63743 33.0463 8.98602 32.8164 9.37894L32.7302 9.51514L30.5887 8.50803L30.6977 8.33414C30.7229 8.29365 33.4105 4.19971 37.1789 2.98457C38.1865 2.659 39.1994 2.49463 40.189 2.49463C43.8158 2.49463 45.9575 4.65681 45.9757 4.67864L46.9916 5.86617L45.4589 6.16655C45.4336 6.17177 42.8837 6.70518 41.8279 8.37164C41.6529 8.64851 41.607 9.19629 41.5573 9.77783C41.5284 10.1237 41.601 10.4607 41.6717 10.7864C41.8249 11.4928 41.9833 12.2234 41.0898 12.9637L41.0122 13.0283L38.655 12.2553V12.2553Z" fill="white"/>
<path d="M36.1893 10.9227C36.1901 10.9187 36.6761 8.7948 38.0237 7.72257C39.9243 6.21059 42.2453 7.0149 42.2669 7.02199L42.6048 5.98092C42.4921 5.94454 39.8398 5.10869 37.3944 6.82721C34.935 8.55543 34.6406 10.1221 34.6143 10.295L36.1893 10.9227V10.9227Z" fill="white"/>
<path d="M34.4132 10.4113L34.4344 10.2684C34.4611 10.0876 34.7692 8.44968 37.2897 6.67781C38.3267 5.94906 39.5693 5.5636 40.8831 5.5636C41.8796 5.5636 42.5837 5.78263 42.6617 5.80782L42.8347 5.86379L42.383 7.25245L42.2085 7.19461C42.1432 7.17259 41.5572 6.98397 40.7686 6.98397C39.7579 6.98397 38.8728 7.28062 38.1383 7.86571C36.8494 8.89073 36.3726 10.9419 36.3681 10.9621L36.3207 11.1706L34.4132 10.4113ZM42.1488 6.79684L42.3733 6.1054C42.1085 6.03824 41.5725 5.92891 40.8831 5.92891C39.6271 5.92891 38.4886 6.28153 37.4998 6.97651C35.4311 8.43065 34.9367 9.74449 34.8246 10.1824L36.0658 10.6768C36.2281 10.0995 36.7658 8.49072 37.9106 7.57969C38.7006 6.95188 39.6887 6.61997 40.7684 6.61997C41.3893 6.61997 41.8895 6.72706 42.149 6.79684H42.1488ZM28.1597 55.8932C27.2203 54.8889 26.6645 53.8081 26.5301 53.4762C26.4533 53.287 26.366 52.9265 26.6413 52.6433C26.8561 52.4241 27.2283 52.3114 27.7486 52.3114H28.5496C29.3843 52.3114 30.3603 52.3114 30.9407 52.3122L31.4276 52.3129C32.1112 52.3129 32.4482 52.5084 32.6103 52.6724C32.8462 52.9111 32.8829 53.243 32.7204 53.6586C32.2857 54.7689 31.2987 55.6751 31.0071 55.9264C30.625 56.2563 30.0765 56.4518 29.5377 56.4518C28.9854 56.4518 28.496 56.2533 28.1597 55.8932V55.8932ZM28.9727 28.1916L30.9168 28.0666C30.9168 28.0666 30.4203 28.9431 30.0981 30.0767C29.7343 31.359 30.4308 33.2331 30.4308 33.2331C30.4308 33.2331 27.8369 30.2965 28.9727 28.1916V28.1916Z" fill="white"/>
<path d="M27.1489 21.2334C25.9054 21.986 24.7948 22.2469 23.7354 22.27C22.6757 22.2469 21.5656 21.986 20.3219 21.2334C20.3219 21.2334 22.133 23.4433 23.7263 23.4603V23.4616C23.7291 23.4616 23.7319 23.4609 23.7352 23.4609C23.738 23.4609 23.7408 23.4616 23.7442 23.4616V23.4603C25.3371 23.4433 27.1489 21.2334 27.1489 21.2334ZM31.4007 61.5881L31.2621 59.7855C37.1014 59.3364 38.95 54.5787 38.9595 53.9895L40.2306 54.1179C40.2313 55.4804 38.3233 61.056 31.4007 61.5881Z" fill="white"/>
<path d="M33.4298 48.8881C33.4232 48.3183 33.3061 47.7662 33.0314 47.2164C33.0118 47.1785 32.9896 47.1421 32.9691 47.1052C34.7688 47.0897 36.8418 46.9175 38.6069 46.211C40.5469 45.4348 42.9738 42.7799 43.391 39.6604C43.391 39.6604 47.0448 42.4799 45.9713 48.5149C44.9627 54.1817 40.2212 56.0291 34.8132 56.3416C34.8102 56.3051 35.4216 55.0427 35.2283 54.2698C38.2984 54.4929 41.7326 53.3065 43.3912 50.5788C44.908 48.0821 44.4827 43.8197 43.8588 43.195C42.3378 47.9959 36.8625 48.9719 33.4298 48.8881V48.8881Z" fill="white"/>
<path d="M35.6135 50.3095C34.9674 49.611 33.7795 48.7785 31.0404 48.7785L23.7445 48.774H23.7266C21.624 48.7755 16.4298 48.7785 16.4298 48.7785C13.6913 48.7785 12.5034 49.6112 11.8569 50.3095C10.9153 51.3262 10.7675 52.7402 11.419 54.5078C13.1501 59.2126 15.5828 63.9925 23.7263 63.9992V64C23.7292 64 23.7319 63.9992 23.7352 63.9992C23.738 63.9992 23.7408 64 23.7442 64V63.9992C31.8869 63.9922 34.3196 59.2126 36.0512 54.5078C36.7027 52.7402 36.5546 51.3262 35.6135 50.3095ZM34.3457 54.1779C33.5211 56.5405 31.3044 62.2589 23.735 62.2688C16.1647 62.2589 13.949 56.5407 13.1241 54.1779C12.6678 52.8671 12.7025 51.8971 13.2308 51.2946C13.5919 50.8827 14.421 50.3911 16.3106 50.3911L18.2847 50.3903C19.7411 50.389 21.5697 50.3875 23.7352 50.3866C25.9 50.3875 27.7295 50.389 29.1855 50.3903L31.1589 50.3911C33.0491 50.3911 33.878 50.8825 34.2392 51.2946C34.767 51.8976 34.8021 52.8671 34.3456 54.1779H34.3457Z" fill="white"/>
<path d="M32.8635 45.4513C33.8367 48.3071 35.8244 50.6186 35.8244 50.6186C35.8244 50.6186 33.09 50.4941 32.9389 50.0104C32.8279 49.6536 30.4706 44.1352 29.5657 37.6705C30.4161 39.0689 32.7799 45.2067 32.8635 45.4513V45.4513Z" fill="white"/>
</svg>
